<svg width="198" height="258" viewBox="0 0 198 258" fill="none" xmlns="http://www.w3.org/2000/svg">
<path d="M87.7048 107.074C79.4215 100.982 75.9845 91.4142 79.5832 85.0826C79.777 84.7336 79.9974 84.3865 80.2427 84.0604C84.8575 77.7764 95.688 77.889 104.432 84.3121C113.172 90.7429 116.518 101.045 111.897 107.327C110.676 108.988 109.024 110.197 107.091 110.966C101.705 113.113 94.1376 111.799 87.7048 107.074ZM142.405 32.656C95.8749 -1.54819 38.2295 -2.15656 13.6439 31.2924C11.2714 34.5173 9.29528 37.9425 7.70741 41.524C-7.24038 75.1179 11.3401 122.872 53.3809 153.771C68.3903 164.798 84.5543 172.335 100.391 176.359C108.22 178.348 115.974 179.48 123.463 179.754C147.8 180.64 169.404 172.458 182.136 155.133C183.871 152.774 185.395 150.311 186.709 147.753C204.069 114.056 185.645 64.4361 142.405 32.656Z" fill="#F5AF41"/>
<path d="M129.494 175.846C128.319 175.846 127.135 175.825 125.945 175.781C124.94 175.744 123.934 175.693 122.92 175.625C122.874 172.705 122.89 169.791 123.145 167.31C125.591 167.573 128.016 167.749 130.416 167.836C131.605 167.88 132.787 167.901 133.964 167.901C152.893 167.901 169.944 162.281 182.124 151.01C181.529 151.935 180.903 152.848 180.246 153.743C175.756 159.851 170.105 164.778 163.588 168.524C153.607 173.408 141.958 175.846 129.494 175.846ZM95.4091 170.236C81.9985 165.914 68.5203 159.097 55.8635 149.798C23.4475 125.973 4.97923 92.1287 5.07459 62.4786C5.52249 55.3426 7.12819 48.5167 9.96842 42.2208C10.2027 42.2793 10.4442 42.3219 10.6914 42.3467C6.97327 61.7785 12.3847 84.1525 25.4098 104.813C23.4643 111.147 24.383 116.702 28.2142 120.46C30.7724 122.97 34.2362 124.23 37.9643 124.23C38.7339 124.23 39.5156 124.177 40.302 124.069C46.2097 130.41 52.9031 136.394 60.3323 141.854C61.4793 142.697 62.6343 143.52 63.7952 144.323C63.9819 147.922 64.7655 151.124 67.0804 153.505C69.5402 156.033 73.425 157.262 78.9409 157.262C79.2086 157.262 79.4815 157.259 79.7545 157.253C81.2664 157.221 82.6756 156.768 83.8844 155.945C88.5779 158.165 93.3052 160.078 98.0288 161.679C97.2153 163.944 96.2493 166.909 95.4091 170.236Z" fill="#CC8145"/>
<path d="M118.382 106.863C117.317 106.737 116.241 106.565 115.159 106.348C118.372 99.0426 114.597 88.8727 105.821 82.4225C100.995 78.8768 95.5465 77.1082 90.6204 77.1082C86.8288 77.1082 83.3449 78.1564 80.6935 80.2456C79.897 78.6668 79.2226 77.0723 78.6748 75.4763C81.9157 72.5445 86.3716 71.0693 91.2373 71.0693C96.8823 71.0693 103.085 73.0549 108.596 77.055C119.612 85.0523 123.83 98.1684 118.382 106.863Z" fill="#CC8145"/>
<path d="M110.517 105.149C105.483 103.558 100.401 101.007 95.6338 97.503C90.4694 93.7069 86.2136 89.1808 83.0791 84.3746C84.9318 82.6111 87.586 81.7383 90.5779 81.7383C94.5015 81.7383 99.0057 83.241 103.042 86.2068C110.351 91.5811 113.535 99.8525 110.517 105.149Z" fill="#BA73C9"/>
<path d="M111.898 107.329H111.902H111.898ZM90.5776 81.7389C87.029 81.7389 83.9571 82.965 82.1318 85.4496C80.3572 87.8636 80.0256 91.1796 81.1954 94.7873C82.4556 98.6696 85.2613 102.361 89.096 105.18C96.7805 110.829 106.16 111.167 110.004 105.937C113.85 100.706 110.725 91.8565 103.041 86.2066C99.0058 83.2415 94.4999 81.7389 90.5776 81.7389ZM101.515 114.279C96.5879 114.279 91.1401 112.511 86.3139 108.965C81.6929 105.567 78.2886 101.047 76.7285 96.2365C75.079 91.151 75.653 86.3324 78.3472 82.6694C83.7248 75.351 96.0502 75.2423 105.823 82.4235C115.593 89.6046 119.169 101.4 113.789 108.719C111.066 112.422 106.566 114.279 101.515 114.279ZM68.7591 8.94763C45.676 8.94763 26.8045 17.3548 15.5389 32.6819C-8.23791 65.0313 9.36194 118.502 54.7715 151.879C100.182 185.255 156.47 186.091 180.246 153.743C204.022 121.393 186.422 67.922 141.013 34.5449C118.903 18.293 93.6018 9.20506 69.771 8.95337C69.4333 8.94955 69.0947 8.94763 68.7591 8.94763ZM127.029 182.172C126.674 182.172 126.321 182.171 125.965 182.167C101.157 181.904 74.8863 172.492 51.9908 155.663C29.0944 138.834 12.2687 116.571 4.61412 92.9739C-3.13103 69.1023 -0.594575 46.7009 11.7542 29.8999C24.1032 13.0988 44.7117 3.97462 69.8206 4.25684C94.6277 4.51997 120.898 13.9321 143.793 30.7598C166.691 47.5876 183.514 69.8517 191.17 93.4506C198.916 117.322 196.38 139.722 184.031 156.523C171.856 173.087 151.642 182.172 127.029 182.172Z" fill="#6D184E"/>
<path d="M143.937 99.921C134.449 112.828 112.2 112.593 94.2425 99.3938C79.1586 88.3069 71.9051 71.6025 75.5905 58.8889C75.8496 58.2021 80.7763 45.5598 90.141 56.2227C99.7663 67.182 101.586 69.0864 113.326 65.5947C125.066 62.1048 117.925 83.6219 129.779 85.47C141.633 87.3181 147.836 89.0199 143.937 99.921ZM143.429 30.2813C120.996 13.7946 96.0494 4.9254 73.2836 3.7077L73.2955 3.69832C42.3085 -0.393829 23.8947 10.5129 15.0166 21.4216C7.05614 31.1988 6.76119 40.9798 11.9419 39.9498C13.7692 39.5858 15.3363 39.507 16.688 39.6214C16.5508 40.2669 16.4129 40.9104 16.2927 41.5802C10.7959 72.2779 43.8645 78.1019 31.331 97.7952C18.7973 117.487 34.7619 127.284 47.526 118.808L47.6153 118.749C53.3008 115.036 61.0558 117.288 63.9625 123.426C65.4014 126.464 66.5414 130.119 66.4114 133.938C66.0163 145.598 63.8512 155.249 79.7048 154.905C84.3808 154.805 86.4485 149.202 85.2364 144.653C82.4971 134.362 95.9199 131.914 101.132 138.787C102.374 140.424 103.275 142.148 103.62 143.786C104.162 148.713 103.417 154.38 101.28 159.726C96.0606 172.787 88.9045 201.103 109.994 203.399C120.728 204.566 120.949 192.671 120.685 180.776C120.432 169.3 119.724 157.825 127.573 158.079C143.553 158.596 145.234 166.544 160.105 155.649C174.975 144.754 182.801 137.463 189.131 140.779C195.462 144.096 195.531 119.011 195.531 119.011C195.274 88.7985 176.374 54.4965 143.429 30.2813Z" fill="#FF33BB"/>
<path d="M53.0099 65.8318C52.206 65.8318 51.4242 65.5812 50.7585 65.1052C49.9152 64.5015 49.3582 63.6047 49.1883 62.5817L47.6094 53.0396C47.2587 50.9275 48.6927 48.9242 50.8051 48.5743C51.0192 48.5396 51.2335 48.5222 51.4463 48.5222C52.2517 48.5222 53.0319 48.7713 53.6987 49.2489C54.5435 49.8525 55.0999 50.7478 55.2685 51.7707L56.8494 61.3145C57.0181 62.3374 56.7801 63.3651 56.1764 64.2083C55.5712 65.0516 54.6759 65.6095 53.6529 65.7782C53.4386 65.8144 53.2227 65.8318 53.0099 65.8318Z" fill="#D32B9A"/>
<path d="M94.9699 44.4153C93.9644 44.4153 93.0162 44.035 92.2878 43.337L85.2995 36.6496C83.7531 35.1691 83.6991 32.7067 85.1795 31.1603C85.8978 30.4116 86.8628 29.9857 87.8988 29.9637C87.9326 29.9621 87.9664 29.9621 87.9985 29.9621C89.0024 29.9621 89.9438 30.3457 90.6688 31.0403L97.6571 37.7278C99.2035 39.2083 99.2576 41.6707 97.7771 43.217C97.0588 43.9657 96.0938 44.3916 95.0561 44.4136C95.0274 44.4153 94.9987 44.4153 94.9699 44.4153Z" fill="#D32B9A"/>
<path d="M141.849 78.6012C140.4 78.3159 138.823 78.0566 137.131 77.7927C132.981 77.146 131.158 74.0845 130.038 70.5303C130.194 69.2673 130.966 68.1034 132.193 67.5055C132.738 67.2416 133.316 67.1165 133.885 67.1165C135.325 67.1165 136.712 67.9188 137.383 69.2978L141.614 77.9971C141.71 78.1939 141.788 78.3968 141.849 78.6012Z" fill="#D32B9A"/>
<path d="M72.1908 116.522C72.0718 116.522 71.9516 116.517 71.8326 116.507C71.7718 116.501 71.7124 116.493 71.6516 116.486C71.5415 116.236 71.4301 115.991 71.3149 115.749C70.5922 114.221 69.5682 112.934 68.3506 111.92L69.191 102.656C69.3733 100.64 71.0706 99.1249 73.0591 99.1249C73.1743 99.1249 73.2907 99.13 73.4072 99.1401C74.44 99.2338 75.3741 99.7236 76.0386 100.52C76.7031 101.317 77.017 102.325 76.9234 103.358L76.05 112.99C75.9563 114.023 75.4652 114.958 74.6691 115.622C73.9654 116.208 73.0958 116.522 72.1908 116.522Z" fill="#D32B9A"/>
<path d="M45.3464 97.5542C44.0541 97.5542 42.7903 96.9108 42.0534 95.7391C40.9142 93.9267 41.4615 91.525 43.2752 90.3858L51.4636 85.2385C52.1043 84.8348 52.8182 84.6438 53.5239 84.6438C54.8162 84.6438 56.0813 85.2872 56.8182 86.4589C57.9574 88.2714 57.4088 90.673 55.5964 91.8122L47.4067 96.9596C46.7673 97.3619 46.0521 97.5542 45.3464 97.5542Z" fill="#D32B9A"/>
<path d="M118.41 149.919C117.119 149.919 115.854 149.277 115.117 148.104C113.979 146.292 114.526 143.891 116.338 142.751L124.527 137.603C125.168 137.201 125.881 137.009 126.587 137.009C127.88 137.009 129.144 137.652 129.88 138.825C131.02 140.637 130.473 143.039 128.661 144.178L120.47 149.325C119.831 149.728 119.116 149.919 118.41 149.919Z" fill="#D32B9A"/>
<path d="M146.356 127.212C145.829 127.212 145.306 127.103 144.809 126.887C143.857 126.474 143.124 125.714 142.744 124.75L139.199 115.75C138.819 114.786 138.838 113.729 139.251 112.779C139.666 111.828 140.425 111.095 141.39 110.714C141.851 110.533 142.332 110.443 142.813 110.443C143.338 110.443 143.864 110.55 144.361 110.766C145.31 111.181 146.044 111.939 146.424 112.904L149.969 121.905C150.349 122.869 150.332 123.925 149.917 124.874C149.503 125.827 148.745 126.559 147.779 126.939C147.318 127.121 146.836 127.212 146.356 127.212Z" fill="#D32B9A"/>
<path d="M127.729 52.2732C127.367 52.2732 127.003 52.2214 126.646 52.1179L117.353 49.4349C115.296 48.8397 114.107 46.6839 114.701 44.6267C115.192 42.9286 116.748 41.8223 118.435 41.8223C118.789 41.8223 119.15 41.8709 119.507 41.9744L128.802 44.6591C130.857 45.2542 132.048 47.41 131.454 49.4656C131.166 50.4635 130.508 51.2867 129.599 51.788C129.017 52.1098 128.376 52.2732 127.729 52.2732Z" fill="#D32B9A"/>
<path d="M162.703 99.624C162.347 99.624 161.985 99.5753 161.628 99.4711L152.335 96.7867C151.338 96.4978 150.514 95.8393 150.011 94.9321C149.877 94.6852 149.769 94.4299 149.69 94.1678C150.257 93.5631 150.791 92.9213 151.29 92.2427C151.658 91.2146 151.936 90.2671 152.128 89.3953C152.536 89.2508 152.971 89.1735 153.415 89.1735C153.769 89.1735 154.132 89.2223 154.49 89.3264L163.781 92.0108C165.839 92.6055 167.028 94.7608 166.434 96.8186C165.943 98.517 164.388 99.624 162.703 99.624Z" fill="#D32B9A"/>
<path d="M171.075 140.98C171.024 140.98 170.973 140.979 170.919 140.977C169.885 140.936 168.926 140.494 168.222 139.733C167.517 138.972 167.152 137.982 167.193 136.946C167.233 135.909 167.675 134.951 168.435 134.247L175.537 127.679C176.263 127.01 177.193 126.648 178.176 126.648C178.226 126.648 178.275 126.648 178.325 126.651C179.361 126.69 180.32 127.132 181.024 127.894C182.478 129.465 182.382 131.927 180.809 133.38L173.707 139.948C172.985 140.616 172.055 140.98 171.075 140.98Z" fill="#D32B9A"/>
<path d="M152.758 75.6349C151.925 75.6349 151.118 75.3685 150.439 74.8608C149.608 74.2374 149.072 73.3293 148.924 72.3038C148.621 70.1842 150.097 68.2137 152.217 67.9104L161.791 66.5381C161.979 66.5113 162.165 66.4978 162.349 66.4978C163.184 66.4978 163.991 66.7659 164.67 67.2753C165.499 67.897 166.039 68.8052 166.185 69.8306C166.332 70.8578 166.071 71.8799 165.449 72.7093C164.827 73.5387 163.919 74.0783 162.894 74.224L153.318 75.5964C153.132 75.6232 152.944 75.6349 152.758 75.6349Z" fill="#D32B9A"/>
<path d="M89.8175 128.394C89.7959 128.394 89.7743 128.394 89.7514 128.394C88.7141 128.376 87.7468 127.956 87.0251 127.21C85.5373 125.671 85.578 123.209 87.118 121.721L94.0698 114.996C94.8233 114.269 95.7969 113.907 96.7693 113.907C97.785 113.907 98.8007 114.302 99.5592 115.089C100.281 115.833 100.669 116.816 100.651 117.852C100.635 118.889 100.215 119.858 99.4689 120.578L92.5158 127.302C91.7865 128.007 90.8294 128.394 89.8175 128.394Z" fill="#D32B9A"/>
<path d="M62.902 38.848C61.6766 38.848 60.4701 38.2696 59.7163 37.1925L54.1679 29.2697C52.9396 27.5171 53.3675 25.0909 55.1212 23.8631C55.7966 23.3886 56.5731 23.1618 57.3418 23.1618C58.5672 23.1618 59.7739 23.7384 60.5276 24.8156L66.076 32.7384C67.3052 34.4927 66.8757 36.9188 65.1226 38.1467C64.4464 38.6194 63.6707 38.848 62.902 38.848Z" fill="#D32B9A"/>
<path d="M47.4506 16.1218C47.3175 17.4541 46.7038 18.6745 45.8845 19.7337C39.24 28.3229 47.5112 47.8122 36.6063 48.7578C25.608 49.7089 26.3687 24.9437 33.641 16.897C42.8239 6.73177 48.0623 9.99556 47.4506 16.1218Z" fill="#FF5CC9"/>
<path d="M170.372 99.1593C170.372 99.1593 171.023 113.208 156.227 120.925C141.432 128.64 169.8 133.474 178.095 118.322C186.389 103.17 172.136 90.5654 170.372 99.1593Z" fill="#FF5CC9"/>
<path d="M193.054 123.587C190.662 93.122 171.058 59.6008 138.297 35.5168C135.342 33.3468 132.351 31.3057 129.319 29.3825C128.171 28.6549 127.02 27.9493 125.865 27.2567C123.416 29.1909 119.975 30.2391 116.24 30.2391C113.64 30.2391 110.897 29.7307 108.247 28.6641C101.029 25.7517 96.9211 19.6635 98.0909 14.266C97.3743 14.021 96.6595 13.7797 95.9448 13.5476C85.2181 10.0439 74.5297 8.01566 64.2572 7.46855L64.2703 7.46118C59.4598 6.82748 54.9383 6.53459 50.6929 6.53459C48.7494 6.53459 46.8635 6.59538 45.0352 6.71328C49.6908 5.7259 54.829 5.17142 60.4599 5.17142C64.3219 5.17142 68.4193 5.43299 72.7481 5.993C72.8811 6.02615 73.0182 6.04458 73.1582 6.05195C96.3464 7.29354 120.808 16.5687 142.037 32.1733C173.323 55.1686 192.922 88.4504 193.183 119.004C193.18 120.54 193.134 122.081 193.054 123.587Z" fill="#FF99DD"/>
<path d="M143.938 99.9197H143.942H143.938ZM77.8204 59.6338C74.3813 71.6999 81.6938 87.2563 95.6327 97.502C112.388 109.816 133.018 110.366 141.842 98.8019C142.912 95.6948 143.04 93.525 142.236 92.1725C140.793 89.7416 135.577 88.7497 129.419 87.7898C122.043 86.642 120.456 79.5635 119.297 74.3956C118.655 71.527 117.988 68.5589 116.691 67.7981C116.126 67.4675 115.219 67.4825 113.996 67.8469C100.695 71.8013 98.0861 68.8275 88.3777 57.7722C86.8298 56.0101 84.5548 53.9831 82.5241 54.3588C80.1731 54.789 78.3646 58.2362 77.8204 59.6338ZM122.633 111.753C113.036 111.753 102.345 108.264 92.8525 101.287C77.3218 89.8731 69.2968 72.1695 73.3357 58.2362C73.3526 58.1779 73.3714 58.1216 73.3932 58.0634C73.8521 56.8423 76.4073 50.7031 81.6787 49.7394C85.0508 49.1232 88.4904 50.7839 91.9057 54.6744C101.263 65.3278 102.24 66.4399 112.658 63.344C115.177 62.5945 117.334 62.7316 119.068 63.7479C122.124 65.5419 123.017 69.5189 123.881 73.368C125.154 79.0469 126.212 82.5373 130.14 83.1497C138.011 84.3764 143.775 85.5693 146.273 89.7717C147.887 92.4881 147.847 95.9634 146.149 100.711C146.072 100.925 145.965 101.128 145.83 101.312C140.715 108.272 132.218 111.753 122.633 111.753ZM92.999 132.566C96.6227 132.566 100.479 134.039 103.004 137.368C104.531 139.384 105.512 141.379 105.918 143.3C105.935 143.376 105.946 143.452 105.954 143.529C106.557 149.006 105.672 155.067 103.463 160.598C99.0592 171.615 95.6384 187.349 100.498 195.435C102.474 198.723 105.664 200.564 110.248 201.064C112.423 201.299 114.043 200.9 115.196 199.839C118.722 196.6 118.497 187.278 118.296 179.052C118.082 170.178 117.879 161.795 121.826 157.883C123.34 156.379 125.299 155.654 127.649 155.732C133.272 155.914 137.256 156.984 140.457 157.844C146.44 159.451 149.735 160.336 158.717 153.755C160.939 152.128 162.972 150.605 164.935 149.131C176.494 140.467 183.486 135.226 190.158 138.666C191.734 137.145 193.157 128.013 193.185 119.004C192.922 88.451 173.325 55.1685 142.037 32.173C120.809 16.5696 96.3466 7.29323 73.1589 6.0515C73.0188 6.04399 72.8818 6.02521 72.7486 5.99327C38.3882 1.5392 18.8186 15.9948 12.4955 29.7571C10.2363 34.6752 10.7984 37.3634 11.158 37.6847C11.1529 37.6753 11.2701 37.6884 11.4847 37.6452C13.4042 37.2639 15.2215 37.1418 16.885 37.2808C17.5564 37.3371 18.172 37.679 18.5742 38.2201C18.9754 38.7611 19.1253 39.4487 18.9854 40.108L18.9715 40.1756C18.8443 40.773 18.7162 41.3723 18.605 41.996C16.0041 56.5173 22.6657 65.1042 28.5428 72.6805C34.6323 80.5291 40.3843 87.9438 33.3125 99.0555C28.4473 106.698 27.7711 113.447 31.503 117.109C34.8578 120.398 41.0495 120.29 46.2276 116.853L46.3347 116.782C49.5882 114.657 53.6269 114.05 57.4135 115.117C61.237 116.196 64.3978 118.859 66.0851 122.421C67.9849 126.432 68.8837 130.334 68.7595 134.017C68.7208 135.153 68.6652 136.27 68.6116 137.362C68.3355 142.969 68.0962 147.811 70.4477 150.229C72.0684 151.895 75.0814 152.655 79.6546 152.558C80.6367 152.537 81.4233 152.114 82.0601 151.267C83.1685 149.793 83.5329 147.378 82.9693 145.258C81.6299 140.231 83.4502 135.812 87.7202 133.727C89.2644 132.971 91.0998 132.566 92.999 132.566ZM111.4 205.826C110.862 205.826 110.31 205.795 109.741 205.732C103.681 205.073 99.217 202.422 96.4725 197.854C89.2512 185.836 96.6584 164.965 99.1006 158.855C101.013 154.069 101.793 148.859 101.3 144.164C101.024 142.969 100.32 141.602 99.2621 140.206C96.9815 137.198 92.5181 136.608 89.781 137.947C87.523 139.049 86.7377 141.159 87.5061 144.049C88.4378 147.542 87.7728 151.483 85.8153 154.089C84.32 156.077 82.1672 157.201 79.7559 157.253C73.8053 157.378 69.6603 156.155 67.0812 153.504C63.3045 149.621 63.6034 143.553 63.9212 137.13C63.9738 136.063 64.0276 134.969 64.0653 133.858C64.1645 130.93 63.4157 127.758 61.8407 124.431C60.7344 122.095 58.656 120.348 56.1385 119.638C53.6586 118.939 51.0202 119.33 48.8999 120.716L48.8364 120.757C41.698 125.497 33.2221 125.372 28.215 120.46C22.782 115.132 23.206 106.187 29.3502 96.5345C34.6472 88.2106 30.7424 83.1779 24.8317 75.5584C18.7817 67.7605 11.278 58.0878 13.8372 42.0223C13.3715 42.0786 12.8919 42.1538 12.4003 42.2533C10.2899 42.6723 8.42391 41.9753 7.27986 40.341C5.02859 37.1249 6.11402 30.8617 10.0457 24.3863C12.6943 20.0262 18.9794 11.875 31.3264 6.26941C43.1967 0.881683 57.4205 -0.76767 73.6028 1.37013C73.6176 1.37201 73.6336 1.37387 73.6475 1.37575C97.6672 2.71516 122.934 12.3034 144.819 28.3895C177.275 52.2435 197.605 86.9595 197.881 118.991C197.879 119.218 197.86 124.003 197.308 129.19C196.23 139.304 194.135 141.782 192.431 142.81C191.086 143.621 189.529 143.638 188.043 142.859C183.976 140.727 177.869 145.306 167.753 152.889C165.778 154.369 163.736 155.901 161.491 157.543C150.695 165.456 145.89 164.166 139.24 162.38C136.118 161.541 132.577 160.59 127.497 160.426C126.135 160.383 125.494 160.857 125.132 161.217C122.624 163.705 122.819 171.799 122.992 178.939C123.225 188.613 123.467 198.617 118.375 203.297C116.547 204.978 114.204 205.826 111.4 205.826Z" fill="#6D184E"/>
<path d="M133.814 86.1489C133.744 86.1371 133.673 86.1238 133.603 86.1106C133.673 86.1238 133.744 86.1371 133.814 86.1489Z" fill="#6D184E"/>
<path d="M132.856 85.9769C132.747 85.9563 132.634 85.9372 132.523 85.9196C132.634 85.9372 132.747 85.9563 132.856 85.9769Z" fill="#6D184E"/>
<path d="M130.84 85.6387C130.49 85.5833 130.137 85.5264 129.777 85.471C130.137 85.5264 130.49 85.5833 130.84 85.6387Z" fill="#6D184E"/>
<path d="M88.0234 54.1362C87.9169 54.0467 87.812 53.9603 87.707 53.8785C87.812 53.9603 87.9169 54.0467 88.0234 54.1362Z" fill="#6D184E"/>
<path d="M90.1045 56.1819C89.856 55.8996 89.6105 55.6388 89.3682 55.3888C89.6105 55.6388 89.856 55.8996 90.1045 56.1819Z" fill="#6D184E"/>
<path d="M145.065 95.1113C145.065 95.0866 145.069 95.0634 145.07 95.0387C145.069 95.0634 145.065 95.0866 145.065 95.1113Z" fill="#6D184E"/>
<path d="M145.072 93.7502C145.071 93.733 145.067 93.7157 145.067 93.6985C145.067 93.7157 145.071 93.733 145.072 93.7502Z" fill="#6D184E"/>
<path d="M140.765 88.1062C140.729 88.0895 140.694 88.0728 140.657 88.0561C140.694 88.0728 140.729 88.0895 140.765 88.1062Z" fill="#6D184E"/>
<path d="M138.068 87.1254C137.987 87.1028 137.907 87.0788 137.826 87.0563C137.907 87.0788 137.987 87.1028 138.068 87.1254Z" fill="#6D184E"/>
<path d="M139.502 87.5903C139.442 87.5692 139.381 87.5465 139.319 87.5254C139.381 87.5465 139.442 87.5692 139.502 87.5903Z" fill="#6D184E"/>
<path d="M134.739 86.3304C134.612 86.3038 134.481 86.2786 134.353 86.2534C134.481 86.2786 134.612 86.3038 134.739 86.3304Z" fill="#6D184E"/>
<path d="M87.2572 53.5377C87.1458 53.4588 87.036 53.383 86.9277 53.3103C87.036 53.383 87.1458 53.4588 87.2572 53.5377Z" fill="#6D184E"/>
<path d="M144.862 96.6182C144.865 96.5981 144.87 96.5765 144.875 96.5549C144.87 96.5765 144.865 96.5981 144.862 96.6182Z" fill="#6D184E"/>
<path d="M89.2069 55.2268C88.9637 54.9805 88.722 54.7481 88.4834 54.5341C88.722 54.7481 88.9637 54.9805 89.2069 55.2268Z" fill="#6D184E"/>
<path d="M84.2976 52.1205C84.2307 52.1049 84.1655 52.0909 84.0986 52.0785C84.1655 52.0909 84.2307 52.1049 84.2976 52.1205Z" fill="#6D184E"/>
<path d="M82.7441 51.9763C82.7877 51.9748 82.8297 51.9732 82.8732 51.9716C82.8297 51.9732 82.7877 51.9748 82.7441 51.9763ZM83.1842 51.9732C83.1236 51.9717 83.0645 51.9701 83.0054 51.9701C83.007 51.9701 83.0085 51.9701 83.0101 51.9701C83.0365 51.9701 83.0629 51.9716 83.0894 51.9716C83.122 51.9716 83.1516 51.9717 83.1842 51.9732ZM83.0007 51.9701C83.0023 51.9701 83.0038 51.9701 83.0054 51.9701C83.0038 51.9701 83.0023 51.9701 83.0007 51.9701Z" fill="#6D184E"/>
<path d="M144.688 97.425C144.692 97.4094 144.696 97.3937 144.699 97.3781C144.696 97.3937 144.692 97.4094 144.688 97.425Z" fill="#6D184E"/>
<path d="M86.4244 52.9949C86.319 52.9313 86.2152 52.8724 86.1113 52.8166C86.2152 52.8724 86.319 52.9313 86.4244 52.9949Z" fill="#6D184E"/>
<path d="M85.7162 52.6224C85.6324 52.5836 85.5486 52.5464 85.4648 52.5092C85.5486 52.5464 85.6324 52.5836 85.7162 52.6224Z" fill="#6D184E"/>
<path d="M84.8568 52.2743C84.8118 52.2603 84.7667 52.2463 84.7217 52.2323C84.7667 52.2463 84.8118 52.2603 84.8568 52.2743Z" fill="#6D184E"/>
<path d="M144.988 95.8472C144.991 95.8225 144.994 95.7993 144.998 95.7761C144.994 95.7993 144.991 95.8225 144.988 95.8472Z" fill="#6D184E"/>
<path d="M78.8875 152.566C74.7434 152.566 71.976 151.8 70.4465 150.229C68.0958 147.811 68.3354 142.969 68.6114 137.362C68.6652 136.271 68.7208 135.153 68.759 134.017C68.8823 130.333 67.9847 126.432 66.0845 122.422C64.3973 118.859 61.2364 116.196 57.413 115.118C56.1866 114.773 54.9353 114.603 53.6909 114.603C51.094 114.603 48.5339 115.344 46.3343 116.781L46.227 116.853C43.5676 118.618 40.6419 119.505 37.9695 119.505C35.4382 119.505 33.1342 118.708 31.5026 117.108C27.7706 113.448 28.4469 106.698 33.312 99.0556C40.3837 87.9444 34.6318 80.5295 28.5423 72.6805C22.6652 65.1041 16.0037 56.5172 18.6045 41.9963C18.7157 41.373 18.8439 40.7741 18.9709 40.1751L18.9848 40.1091C19.1249 39.4494 18.9749 38.7619 18.5737 38.222C18.1716 37.6803 17.5558 37.3366 16.8845 37.281C16.4416 37.2446 15.9888 37.2255 15.5249 37.2255C14.247 37.2255 12.8933 37.3661 11.4841 37.6456C11.2697 37.689 11.1525 37.6751 11.1574 37.6855C10.798 37.3643 10.2358 34.6751 12.4951 29.7584C13.6202 27.3088 15.1664 24.8348 17.1407 22.4511C14.9173 28.0883 15.5885 32.347 18.5758 32.3452C18.8022 32.3452 19.0414 32.3227 19.2947 32.2723C20.6164 32.0084 21.8022 31.8956 22.8678 31.8956C23.276 31.8956 23.6671 31.9112 24.0406 31.9425C23.9036 32.5883 23.7666 33.2324 23.6465 33.9043C18.1487 64.6006 51.2173 70.4252 38.6835 90.118C29.2295 104.971 35.9884 114.195 45.358 114.193C48.4108 114.193 51.7426 113.214 54.8796 111.13C54.9084 111.111 54.9383 111.09 54.9681 111.073C56.8459 109.846 58.9492 109.269 61.0288 109.269C63.6793 109.269 66.2921 110.205 68.351 111.92L68.3163 112.288C68.2243 113.321 68.5368 114.33 69.2017 115.127C69.8267 115.875 70.6913 116.354 71.6531 116.486C72.9274 119.37 73.884 122.747 73.7642 126.259C73.4049 136.879 71.5785 145.83 83.2278 147.085C83.2695 148.659 82.8563 150.208 82.0594 151.267C81.4222 152.114 80.6358 152.537 79.6531 152.558C79.3945 152.563 79.1393 152.566 78.8875 152.566Z" fill="#D32B9A"/>
<path d="M71.6532 116.485C70.6915 116.355 69.826 115.875 69.2015 115.126C68.5379 114.329 68.2232 113.321 68.317 112.288L68.3503 111.919C69.5684 112.934 70.5918 114.22 71.3148 115.748C71.43 115.99 71.5427 116.236 71.6532 116.485Z" fill="#B42583"/>
<path d="M78.8997 154.914C63.9254 154.914 66.0228 145.397 66.4113 133.937C66.5412 130.119 65.4002 126.463 63.9623 123.426C62.0148 119.315 57.8945 116.947 53.6759 116.947C51.5963 116.947 49.492 117.522 47.6152 118.749C47.5853 118.769 47.5556 118.788 47.5257 118.808C44.3886 120.891 41.0589 121.87 38.0052 121.87C28.6354 121.87 21.8774 112.646 31.3306 97.7949C43.8643 78.1012 10.7947 72.2778 16.2924 41.5801C16.4126 40.9107 16.5506 40.2662 16.6877 39.62C16.3133 39.5897 15.923 39.5719 15.5148 39.5719C14.4482 39.5719 13.2625 39.6859 11.9417 39.9476C11.6884 39.9992 11.4482 40.0241 11.2218 40.0241C5.81644 40.0241 7.99321 26.0666 21.2071 15.2495C19.369 17.7472 18.0254 20.2076 17.1406 22.4508C15.1662 24.8346 13.62 27.3074 12.4949 29.7571C10.2357 34.6743 10.7977 37.3626 11.1572 37.6848C11.1522 37.6759 11.2695 37.6884 11.4838 37.6456C12.8931 37.3661 14.2467 37.2237 15.5248 37.2237C15.9885 37.2237 16.4414 37.2433 16.8842 37.2807C17.5556 37.3359 18.1714 37.6795 18.5735 38.2207C18.9746 38.7619 19.1247 39.4491 18.9846 40.1078L18.9707 40.1754C18.8436 40.7736 18.7156 41.3718 18.6043 41.9949C16.0035 56.5168 22.665 65.105 28.542 72.6802C34.6317 80.5295 40.3835 87.9445 33.3117 99.0553C28.4467 106.698 27.7704 113.447 31.5024 117.108C33.1341 118.708 35.438 119.504 37.9694 119.504C40.6418 119.504 43.5673 118.617 46.2268 116.853L46.3341 116.782C48.5337 115.343 51.0939 114.603 53.6908 114.603C54.9351 114.603 56.1865 114.772 57.4129 115.117C61.2363 116.196 64.3972 118.859 66.0844 122.42C67.9842 126.431 68.8829 130.334 68.7588 134.017C68.7201 135.153 68.6644 136.27 68.6108 137.362C68.3347 142.969 68.0954 147.811 70.447 150.229C71.9761 151.8 74.7427 152.566 78.8891 152.566C79.1383 152.566 79.3929 152.563 79.6546 152.558C80.6355 152.537 81.4224 152.114 82.0598 151.267C82.8573 150.207 83.2686 148.659 83.2276 147.085C83.9558 147.163 84.7373 147.212 85.5741 147.229C85.5972 151.077 83.5214 154.823 79.7044 154.905C79.4303 154.911 79.1632 154.914 78.8997 154.914Z" fill="#6D184E"/>
<path d="M147.294 96.3624C147.689 93.7269 147.347 91.5816 146.272 89.7728C143.773 85.5703 138.01 84.3767 130.14 83.1495C126.21 82.5375 125.153 79.0464 123.879 73.3683C123.015 69.52 122.123 65.5418 119.068 63.7474C118.068 63.1626 116.927 62.8678 115.66 62.8678C114.727 62.8678 113.725 63.0265 112.656 63.3453C109.45 64.297 107.138 64.8513 105.201 64.8513C100.843 64.8513 98.3807 62.0475 91.9048 54.6744C89.1571 51.5438 86.3934 49.8568 83.6602 49.6389C84.7336 47.5849 86.983 44.2877 90.3844 44.2877C92.3663 44.2877 94.739 45.4076 97.4947 48.5462C104.286 56.2814 107.191 59.5049 112.441 59.5049C114.63 59.5049 117.225 58.9442 120.678 57.9172C121.557 57.656 122.33 57.5359 123.012 57.5359C128.259 57.5359 128.202 64.6991 130.038 70.5309C129.95 71.2487 130.062 71.9985 130.401 72.6954L134.633 81.3935C135.086 82.326 135.876 83.0261 136.856 83.3658C137.271 83.5084 137.699 83.5805 138.125 83.5805C138.707 83.5805 139.284 83.4475 139.822 83.1863C140.754 82.7329 141.455 81.9431 141.793 80.9625C142.06 80.1887 142.078 79.3716 141.849 78.601C149.594 80.1246 153.679 82.3388 152.128 89.3947C150.984 89.7968 150.044 90.7277 149.683 91.9789C149.472 92.7047 149.478 93.4593 149.69 94.1675C148.946 94.9621 148.147 95.6927 147.294 96.3624Z" fill="#D32B9A"/>
<path d="M138.126 83.5795C137.699 83.5795 137.271 83.5092 136.856 83.3657C135.876 83.0268 135.086 82.3275 134.633 81.3946L130.401 72.6965C130.062 71.9987 129.95 71.2491 130.039 70.5315C131.158 74.0843 132.979 77.1455 137.131 77.7929C138.824 78.057 140.4 78.3166 141.849 78.6021C142.078 79.3716 142.059 80.19 141.792 80.9641C141.455 81.9443 140.755 82.7336 139.821 83.1871C139.284 83.4482 138.707 83.5795 138.126 83.5795Z" fill="#B42583"/>
<path d="M149.691 94.1672C149.479 93.4604 149.472 92.7043 149.683 91.9783C150.044 90.7266 150.984 89.7974 152.128 89.3939C151.936 90.2676 151.658 91.2127 151.289 92.242C150.792 92.9203 150.258 93.562 149.691 94.1672Z" fill="#B42583"/>
<path d="M144.47 98.2535V98.252C144.552 97.9695 144.624 97.6933 144.688 97.4265C144.692 97.4092 144.696 97.3951 144.699 97.3794C144.761 97.1205 144.815 96.8663 144.861 96.6183C144.866 96.5979 144.87 96.5759 144.875 96.5555C144.919 96.3123 144.957 96.0769 144.988 95.8462C144.991 95.8227 144.994 95.7991 144.998 95.7756C145.012 95.6626 145.024 95.5496 145.037 95.4382C145.048 95.3283 145.057 95.22 145.065 95.1118C145.057 95.22 145.048 95.3283 145.037 95.4382C145.048 95.3283 145.057 95.22 145.065 95.1118C145.067 95.0866 145.068 95.0631 145.07 95.0396C145.084 94.8246 145.092 94.6159 145.093 94.4118C145.093 94.4087 145.093 94.4071 145.093 94.404C145.093 94.3852 145.093 94.3679 145.093 94.3491C145.092 94.2455 145.092 94.1451 145.087 94.0462C145.084 93.9458 145.079 93.8469 145.073 93.7496C145.07 93.7323 145.068 93.7151 145.067 93.6994C145.052 93.5079 145.032 93.3227 145.005 93.1423C145.004 93.136 145.002 93.1297 145.002 93.1234C144.999 93.114 144.998 93.103 144.996 93.0921C144.98 92.9963 144.965 92.9022 144.946 92.8096C144.927 92.7154 144.905 92.6244 144.883 92.5334V92.5302C144.696 91.7895 144.392 91.1382 143.974 90.5592C143.439 89.8169 142.719 89.1954 141.828 88.6634C141.765 88.6258 141.7 88.5881 141.634 88.552C141.534 88.4939 141.429 88.4374 141.324 88.3825C141.303 88.3715 141.283 88.3605 141.263 88.3496C141.14 88.2852 141.016 88.2256 140.887 88.1644C140.847 88.1456 140.806 88.1251 140.764 88.1063C140.729 88.0906 140.693 88.0734 140.655 88.0561C140.494 87.9823 140.326 87.9117 140.156 87.8411C140.106 87.8223 140.059 87.8019 140.009 87.7815C139.925 87.7501 139.842 87.7171 139.758 87.6842C139.673 87.6528 139.588 87.6214 139.502 87.59C139.442 87.568 139.381 87.5461 139.32 87.5257C139.152 87.466 138.979 87.408 138.805 87.3515C138.734 87.3295 138.664 87.306 138.592 87.284C138.419 87.2306 138.245 87.1773 138.067 87.1255C137.986 87.1035 137.906 87.0784 137.824 87.0564C137.738 87.0329 137.648 87.0078 137.559 86.9843C137.471 86.9591 137.38 86.9356 137.291 86.9121C137.201 86.8885 137.11 86.865 137.019 86.8414C136.84 86.7975 136.66 86.752 136.478 86.708C136.376 86.6845 136.274 86.661 136.17 86.6374C135.991 86.5966 135.809 86.5558 135.626 86.515C135.607 86.5103 135.586 86.5072 135.566 86.5025C135.472 86.4821 135.378 86.4617 135.282 86.4428C135.103 86.4052 134.922 86.3675 134.739 86.3298C134.612 86.3047 134.482 86.2796 134.353 86.2545C134.174 86.2184 133.995 86.1839 133.813 86.1509C133.744 86.1384 133.673 86.1243 133.603 86.1117C133.532 86.0991 133.46 86.0866 133.389 86.0725C133.214 86.0411 133.036 86.0081 132.856 85.9767C132.746 85.9563 132.634 85.9375 132.523 85.9187C132.468 85.9108 132.413 85.8998 132.36 85.892C132.193 85.8637 132.032 85.8355 131.862 85.8057C131.655 85.7727 131.443 85.7366 131.231 85.7021C131.101 85.6817 130.973 85.6597 130.841 85.6393C130.491 85.5828 130.138 85.5263 129.778 85.4714C118.809 83.7609 124.104 65.2131 115.658 65.2131C114.976 65.2131 114.203 65.3339 113.326 65.596C109.87 66.6223 107.277 67.1826 105.088 67.1826C99.8403 67.1826 96.9324 63.9592 90.1403 56.224C90.1278 56.2099 90.1168 56.1957 90.1043 56.1832C89.8547 55.9007 89.6099 55.6402 89.3667 55.3907C89.3133 55.3358 89.26 55.2793 89.2082 55.2259C88.9634 54.9795 88.7217 54.7488 88.4832 54.5338C88.4376 54.493 88.3906 54.4522 88.3435 54.4114C88.2368 54.3173 88.1285 54.2247 88.0233 54.1368C87.9166 54.0473 87.8115 53.9626 87.7063 53.8794C87.6687 53.8496 87.6294 53.8167 87.5902 53.7868C87.4788 53.7005 87.3658 53.6189 87.2559 53.5389C87.1445 53.4604 87.0347 53.3851 86.9264 53.3113C86.8636 53.2705 86.8024 53.2313 86.7412 53.1921C86.6361 53.1246 86.5293 53.0587 86.4242 52.9959C86.3191 52.9331 86.2139 52.8735 86.1119 52.8186C86.0632 52.7935 86.0177 52.773 85.9707 52.7479C85.8843 52.704 85.8012 52.6616 85.7164 52.6224C85.6333 52.5832 85.5485 52.5455 85.4653 52.5094C85.401 52.4812 85.3335 52.4513 85.2692 52.4262C85.1295 52.3697 84.993 52.3211 84.8564 52.2756C84.8109 52.2615 84.7654 52.2473 84.7215 52.2332C84.6838 52.2222 84.6462 52.2112 84.6101 52.2018C84.5724 52.1908 84.5363 52.1814 84.5002 52.172C84.4327 52.1532 84.3653 52.1375 84.2962 52.1202C84.2303 52.1061 84.1644 52.092 84.0969 52.0794C84.0027 52.0606 83.907 52.0433 83.8128 52.0292C83.6842 52.0119 83.5555 51.9962 83.4299 51.9884C83.3483 51.9821 83.2667 51.9758 83.1851 51.9743C83.1522 51.9727 83.1208 51.9711 83.0894 51.9711C83.0627 51.9711 83.036 51.9711 83.0094 51.9711C83.0078 51.9711 83.0062 51.9711 83.0046 51.9711C83.0031 51.9711 83.0015 51.9711 82.9999 51.9711C82.9576 51.9711 82.9152 51.9711 82.8744 51.9727C82.8305 51.9743 82.7881 51.9758 82.7441 51.9774C82.8085 51.7232 82.8697 51.4658 82.9434 51.2132C82.9952 51.075 83.2338 50.4552 83.6606 49.6391C86.3928 49.8573 89.1564 51.5443 91.9043 54.6751C98.3809 62.0493 100.843 64.8521 105.2 64.8521C107.138 64.8521 109.449 64.2982 112.657 63.3456C113.724 63.027 114.727 62.8685 115.659 62.8685C116.927 62.8685 118.068 63.1635 119.066 63.7489C122.122 65.5426 123.014 69.5208 123.879 73.3688C125.152 79.0466 126.21 82.5384 130.139 83.1504C138.009 84.3776 143.773 85.5703 146.272 89.7729C147.347 91.5824 147.687 93.7276 147.295 96.3625C146.405 97.0609 145.462 97.6917 144.47 98.2535ZM144.688 97.4265C144.624 97.6933 144.552 97.9695 144.47 98.252C144.552 97.9695 144.624 97.6933 144.688 97.4265ZM144.861 96.6183C144.815 96.8663 144.761 97.1205 144.699 97.3794C144.761 97.1205 144.815 96.8663 144.861 96.6183ZM145.093 94.4118C145.092 94.6159 145.084 94.8246 145.07 95.0396C145.084 94.8246 145.092 94.6159 145.093 94.4118Z" fill="#6D184E"/>
<path d="M145.07 95.0399C145.084 94.8251 145.092 94.615 145.093 94.4125C145.092 94.615 145.084 94.8251 145.07 95.0399Z" fill="#6D184E"/>
<path d="M145.067 93.6987C145.051 93.5087 145.033 93.3233 145.005 93.1425C145.033 93.3233 145.051 93.5087 145.067 93.6987ZM145.005 93.1425C145.004 93.1363 145.002 93.1301 145.002 93.1239C145.002 93.1301 145.004 93.1363 145.005 93.1425Z" fill="#6D184E"/>
<path d="M144.997 95.7751C145.011 95.6624 145.025 95.5496 145.036 95.4383C145.025 95.5496 145.011 95.6624 144.997 95.7751ZM145.036 95.4383C145.047 95.3286 145.057 95.2189 145.065 95.1107C145.057 95.2189 145.047 95.3286 145.036 95.4383Z" fill="#6D184E"/>
<path d="M144.996 93.0913C144.98 92.9971 144.963 92.9029 144.945 92.8086C144.963 92.9029 144.98 92.9971 144.996 93.0913ZM144.945 92.8086C144.926 92.7159 144.906 92.6248 144.883 92.5337C144.906 92.6248 144.926 92.7159 144.945 92.8086Z" fill="#6D184E"/>
<path d="M140.656 88.0557C140.494 87.9828 140.325 87.9114 140.155 87.8416C140.325 87.9114 140.494 87.9828 140.656 88.0557Z" fill="#6D184E"/>
<path d="M141.829 88.6627C141.764 88.6246 141.702 88.588 141.636 88.5514C141.702 88.588 141.764 88.6246 141.829 88.6627ZM141.636 88.5514C141.534 88.4934 141.43 88.437 141.325 88.3821C141.43 88.437 141.534 88.4934 141.636 88.5514Z" fill="#6D184E"/>
<path d="M141.263 88.3488C141.141 88.2864 141.016 88.224 140.887 88.1646C141.016 88.224 141.141 88.2848 141.263 88.3488ZM140.887 88.1646C140.847 88.1448 140.806 88.125 140.764 88.1068C140.806 88.125 140.847 88.1448 140.887 88.1646Z" fill="#6D184E"/>
<path d="M144.471 98.2522C144.552 97.9683 144.623 97.6937 144.688 97.4252C144.623 97.6937 144.552 97.9683 144.471 98.2522Z" fill="#6D184E"/>
<path d="M144.875 96.5551C144.92 96.3125 144.957 96.0778 144.988 95.8476C144.957 96.0762 144.92 96.3125 144.875 96.5551Z" fill="#6D184E"/>
<path d="M144.698 97.3807C144.762 97.1198 144.816 96.8666 144.862 96.6181C144.816 96.8666 144.762 97.1198 144.698 97.3807Z" fill="#6D184E"/>
<path d="M85.4667 52.5088C85.3999 52.4808 85.3332 52.4514 85.2695 52.425C85.3332 52.4514 85.3999 52.4808 85.4667 52.5088Z" fill="#6D184E"/>
<path d="M84.099 52.0781C84.0026 52.0595 83.9077 52.0424 83.8145 52.0284C83.9077 52.0424 84.0026 52.0595 84.099 52.0781Z" fill="#6D184E"/>
<path d="M84.7212 52.2329C84.6839 52.222 84.6466 52.2112 84.6093 52.2003C84.6466 52.2112 84.6839 52.222 84.7212 52.2329ZM84.6093 52.2003C84.5736 52.191 84.5363 52.1801 84.499 52.1708C84.5363 52.1801 84.5736 52.191 84.6093 52.2003Z" fill="#6D184E"/>
<path d="M86.9248 53.3114C86.8644 53.2712 86.8025 53.2309 86.7422 53.1922C86.8025 53.2309 86.8644 53.2712 86.9248 53.3114Z" fill="#6D184E"/>
<path d="M86.1118 52.8168C86.0637 52.792 86.0172 52.7718 85.9707 52.747C86.0172 52.7718 86.0637 52.792 86.1118 52.8168Z" fill="#6D184E"/>
<path d="M140.008 87.7827C139.926 87.7494 139.842 87.7161 139.757 87.6843C139.842 87.7161 139.926 87.7494 140.008 87.7827ZM139.757 87.6843C139.672 87.6525 139.587 87.6207 139.501 87.5904C139.587 87.6207 139.672 87.6525 139.757 87.6843Z" fill="#6D184E"/>
<path d="M87.7076 53.8789C87.669 53.8496 87.6304 53.8156 87.5918 53.7863C87.6304 53.8156 87.669 53.8496 87.7076 53.8789Z" fill="#6D184E"/>
<path d="M144.882 92.5306C144.697 91.7895 144.391 91.1379 143.974 90.5605C144.391 91.1379 144.697 91.7895 144.882 92.5306ZM143.974 90.5605C143.439 89.8163 142.719 89.1956 141.828 88.6629C142.719 89.1956 143.439 89.8163 143.974 90.5605Z" fill="#6D184E"/>
<path d="M89.3676 55.3895C89.3139 55.3343 89.2617 55.279 89.208 55.2253C89.2617 55.279 89.3139 55.3343 89.3676 55.3895Z" fill="#6D184E"/>
<path d="M83.4312 51.9873C83.3488 51.9811 83.2664 51.9749 83.1855 51.9733C83.2664 51.9749 83.3488 51.9811 83.4312 51.9873Z" fill="#6D184E"/>
<path d="M145.093 94.3491C145.091 94.2456 145.091 94.1451 145.087 94.0447C145.091 94.1451 145.091 94.2456 145.093 94.3491ZM145.087 94.0447C145.084 93.9458 145.077 93.8469 145.071 93.7495C145.079 93.8469 145.084 93.9458 145.087 94.0447Z" fill="#6D184E"/>
<path d="M136.171 86.6377C135.99 86.596 135.81 86.5557 135.625 86.514C135.81 86.5557 135.99 86.596 136.171 86.6377Z" fill="#6D184E"/>
<path d="M137.019 86.8416C136.84 86.7967 136.66 86.7518 136.478 86.7084C136.66 86.7518 136.84 86.7967 137.019 86.8416Z" fill="#6D184E"/>
<path d="M88.4839 54.5327C88.4377 54.4911 88.3915 54.4511 88.3438 54.411C88.3915 54.4511 88.4377 54.4911 88.4839 54.5327Z" fill="#6D184E"/>
<path d="M138.592 87.2825C138.421 87.2298 138.246 87.1771 138.068 87.1244C138.246 87.1771 138.421 87.2298 138.592 87.2825Z" fill="#6D184E"/>
<path d="M139.321 87.5243C139.153 87.4639 138.981 87.4065 138.806 87.3507C138.981 87.4065 139.153 87.4639 139.321 87.5243Z" fill="#6D184E"/>
<path d="M137.825 87.0566C137.738 87.0326 137.65 87.0071 137.56 86.9831C137.65 87.0071 137.738 87.0326 137.825 87.0566ZM137.56 86.9831C137.471 86.9591 137.381 86.9351 137.291 86.9126C137.381 86.9351 137.471 86.9591 137.56 86.9831Z" fill="#6D184E"/>
<path d="M135.284 86.4414C135.104 86.4043 134.924 86.3657 134.74 86.3285C134.924 86.3657 135.104 86.4043 135.284 86.4414Z" fill="#6D184E"/>
<path d="M132.361 85.8906C132.195 85.8627 132.032 85.8349 131.863 85.8055C132.032 85.8349 132.195 85.8627 132.361 85.8906Z" fill="#6D184E"/>
<path d="M131.232 85.7028C131.101 85.6809 130.972 85.6604 130.841 85.6385C130.972 85.6604 131.101 85.6809 131.232 85.7028Z" fill="#6D184E"/>
<path d="M133.389 86.0728C133.213 86.0418 133.036 86.0079 132.854 85.977C133.036 86.0079 133.213 86.0418 133.389 86.0728Z" fill="#6D184E"/>
<path d="M134.352 86.2538C134.173 86.2198 133.994 86.1843 133.812 86.1502C133.994 86.1843 134.173 86.2198 134.352 86.2538Z" fill="#6D184E"/>
<path d="M111.396 201.13C111.031 201.13 110.648 201.108 110.246 201.064C108.968 200.925 107.8 200.682 106.734 200.331C110.624 200.022 114.967 197.701 114.785 188.813C114.47 173.521 105.473 150.344 132.682 150.344C133.804 150.344 134.989 150.383 136.238 150.464C136.309 150.468 136.524 150.48 136.561 150.483L136.559 150.485C146.304 151.1 150.311 153.709 154.79 153.709C156.649 153.709 158.589 153.26 161.054 152.03C160.297 152.593 159.519 153.168 158.716 153.756C153.26 157.752 149.904 158.996 146.768 158.996C144.74 158.996 142.805 158.475 140.456 157.845C137.254 156.985 133.269 155.914 127.648 155.732C127.534 155.73 127.421 155.727 127.307 155.727C125.108 155.727 123.265 156.453 121.824 157.883C117.877 161.796 118.081 170.179 118.295 179.053C118.495 187.278 118.721 196.6 115.196 199.84C114.253 200.705 113.004 201.13 111.396 201.13ZM178.26 139.936C184.069 135.669 188.451 132.84 192.133 132.37C191.59 135.599 190.89 137.958 190.156 138.666C188.742 137.938 187.317 137.599 185.835 137.599C183.499 137.599 181.025 138.443 178.26 139.936Z" fill="#D32B9A"/>
<path d="M111.026 203.232C105.349 203.232 100.818 199.545 100.818 199.545C100.818 199.545 103.062 200.37 105.754 200.37C106.075 200.37 106.404 200.358 106.734 200.331C107.8 200.681 108.97 200.925 110.247 201.064C110.649 201.108 111.033 201.129 111.397 201.129C113.005 201.129 114.255 200.704 115.196 199.839C118.721 196.6 118.495 187.278 118.296 179.052C118.081 170.178 117.878 161.796 121.825 157.883C123.266 156.453 125.109 155.727 127.307 155.727C127.422 155.727 127.535 155.729 127.649 155.732C133.27 155.914 137.256 156.984 140.457 157.844C142.807 158.475 144.742 158.995 146.768 158.995C149.905 158.995 153.262 157.752 158.717 153.756C159.519 153.168 160.297 152.593 161.055 152.03C162.854 151.134 164.929 149.823 167.456 147.971C171.554 144.97 175.116 142.242 178.261 139.935C181.026 138.442 183.499 137.598 185.836 137.598C187.318 137.598 188.743 137.938 190.157 138.666C190.891 137.958 191.592 135.598 192.134 132.37C192.494 132.323 192.847 132.3 193.195 132.3C193.644 132.3 194.082 132.339 194.513 132.419C193.768 137.042 192.475 141.082 190.237 141.081C189.891 141.081 189.523 140.985 189.132 140.779C188.083 140.231 186.997 139.973 185.843 139.973C180.02 139.973 172.516 146.556 160.105 155.649C154.132 160.025 150.286 161.363 146.785 161.363C141.711 161.363 137.363 158.551 128.322 158.114C128.322 158.114 127.878 157.879 127.22 157.879C125.73 157.879 123.143 159.089 122.113 166.99C120.629 178.381 123.704 198.859 115.965 202.215C114.277 202.946 112.608 203.232 111.026 203.232Z" fill="#6D184E"/>
<path d="M51.9675 47.1233C50.4209 47.3787 49.3742 48.8397 49.6304 50.3864L51.2104 59.9297C51.4666 61.4764 52.9273 62.5218 54.4739 62.2664C56.0222 62.011 57.0676 60.5484 56.8106 59.0017L55.2322 49.4599C54.9768 47.9117 53.5142 46.8663 51.9675 47.1233Z" fill="#0DF4FF"/>
<path d="M52.4319 48.128C52.3356 48.128 52.2373 48.1359 52.138 48.1519C51.6653 48.2299 51.2512 48.488 50.9721 48.8784C50.6931 49.2671 50.5819 49.7435 50.6603 50.2151L52.2403 59.7585C52.4012 60.7351 53.3264 61.3947 54.3046 61.237C54.7778 61.1589 55.1921 60.9008 55.4709 60.5105C55.7497 60.1202 55.8596 59.6454 55.7815 59.1722L54.2027 49.6288C54.0577 48.7525 53.2945 48.128 52.4319 48.128ZM54.0083 63.348C52.1449 63.348 50.4954 61.997 50.1806 60.0994L48.6006 50.556C48.4318 49.5332 48.6711 48.5055 49.275 47.6627C49.8787 46.8199 50.7745 46.2623 51.7974 46.0918C53.9111 45.7429 55.9122 47.1768 56.2627 49.2878L57.8416 58.8312C58.0105 59.8557 57.7715 60.8817 57.1677 61.7261C56.5638 62.5689 55.6684 63.125 54.6456 63.2954C54.4321 63.3305 54.2186 63.348 54.0083 63.348Z" fill="#6D184E"/>
<path d="M86.9276 29.3986C85.8426 30.5312 85.8817 32.3288 87.0143 33.4122L94.0025 40.101C95.1351 41.1843 96.931 41.1452 98.0161 40.0125C99.0994 38.8799 99.0603 37.0822 97.9276 35.9989L90.9395 29.3118C89.8086 28.2268 88.0109 28.2659 86.9276 29.3986Z" fill="#0DF4FF"/>
<path d="M87.6808 30.1209C86.9969 30.8355 87.0208 31.9729 87.737 32.6585L94.7237 39.3467C95.4383 40.0306 96.5774 40.005 97.2613 39.2904C97.5938 38.9443 97.7711 38.4907 97.7592 38.0098C97.749 37.5323 97.5512 37.0855 97.2067 36.7529L90.2183 30.0646C89.8721 29.7338 89.4065 29.5479 88.9376 29.5667C88.4584 29.5769 88.0116 29.773 87.6808 30.1209ZM95.9635 41.9303C94.9983 41.9303 94.0314 41.5739 93.281 40.8542L86.2926 34.1659C84.7459 32.6857 84.693 30.2233 86.1715 28.6765C86.8895 27.9279 87.8547 27.5033 88.8915 27.4794C89.9215 27.4709 90.9123 27.8392 91.6627 28.5571L98.6494 35.2454C99.3997 35.9617 99.8244 36.9286 99.8465 37.9654C99.8687 39.0023 99.4867 39.9862 98.7688 40.7349C98.0082 41.5295 96.9867 41.9303 95.9635 41.9303Z" fill="#6D184E"/>
<path d="M133.642 65.9629C132.233 66.6492 131.646 68.3473 132.332 69.7566L136.564 78.4553C137.249 79.8646 138.947 80.4515 140.358 79.7667C141.769 79.0804 142.354 77.3808 141.669 75.9715L137.437 67.2728C136.751 65.8635 135.053 65.2766 133.642 65.9629Z" fill="#0DF4FF"/>
<path d="M133.642 65.9619H133.647H133.642ZM134.883 66.7191C134.615 66.7191 134.347 66.7805 134.099 66.9003V66.9018C133.667 67.1107 133.345 67.4762 133.186 67.9278C133.031 68.3823 133.06 68.8692 133.269 69.2992L137.502 77.998C137.935 78.8887 139.012 79.2604 139.901 78.8273C140.792 78.3942 141.163 77.3176 140.73 76.4268L136.498 67.7296C136.289 67.2981 135.923 66.9756 135.47 66.8189C135.278 66.7513 135.08 66.7191 134.883 66.7191ZM139.122 81.0941C137.682 81.0941 136.296 80.2909 135.625 78.9118L131.393 70.213C130.939 69.2808 130.877 68.2272 131.214 67.2474C131.554 66.2676 132.254 65.4782 133.186 65.0236C134.119 64.5705 135.171 64.506 136.152 64.8454C137.132 65.1833 137.921 65.8836 138.374 66.8174L142.607 75.5146C143.544 77.4389 142.739 79.7672 140.815 80.704C140.269 80.9697 139.692 81.0941 139.122 81.0941Z" fill="#6D184E"/>
<path d="M74.3058 97.6963C72.7448 97.5548 71.3649 98.7051 71.2233 100.267L70.3497 109.9C70.2081 111.461 71.3585 112.843 72.9195 112.984C74.4818 113.126 75.8631 111.975 76.0033 110.413L76.877 100.78C77.0198 99.2191 75.8681 97.8379 74.3058 97.6963Z" fill="#0DF4FF"/>
<path d="M74.0469 98.7285C73.6277 98.7285 73.2264 98.8733 72.9008 99.1438C72.5328 99.4515 72.3059 99.8836 72.2623 100.36L71.3893 109.995C71.3457 110.472 71.4905 110.939 71.7982 111.306C72.1046 111.674 72.5367 111.901 73.0149 111.944C73.9982 112.04 74.8751 111.304 74.9648 110.318L75.8379 100.686C75.8815 100.208 75.7366 99.7426 75.4289 99.3733C75.1213 99.0054 74.6892 98.7785 74.2123 98.7362C74.1572 98.7297 74.102 98.7285 74.0469 98.7285ZM73.179 114.04C73.0636 114.04 72.9444 114.035 72.8251 114.023C71.7931 113.93 70.8585 113.44 70.1957 112.644C69.5303 111.846 69.2175 110.839 69.3098 109.807L70.1841 100.173C70.3765 98.0413 72.27 96.467 74.4007 96.6567C75.4341 96.7516 76.3687 97.24 77.0328 98.0374C77.6969 98.8336 78.011 99.8413 77.9174 100.875L77.043 110.507C76.861 112.521 75.1636 114.04 73.179 114.04Z" fill="#6D184E"/>
<path d="M56.9273 84.5314C56.0914 83.2052 54.3404 82.805 53.0128 83.6395L44.8231 88.7874C43.4955 89.6219 43.0967 91.373 43.9312 92.7006C44.7644 94.0282 46.5181 94.4284 47.8444 93.5938L56.034 88.4473C57.3616 87.6114 57.7618 85.859 56.9273 84.5314Z" fill="#FFD00D"/>
<path d="M54.5206 84.2491C54.1938 84.2491 53.8643 84.337 53.5677 84.5223L45.3783 89.6702C44.9732 89.9243 44.6903 90.3225 44.5846 90.7907C44.4775 91.259 44.5599 91.7396 44.8153 92.146C45.3412 92.9823 46.4521 93.2363 47.2897 92.7104L55.4791 87.5625C56.3167 87.0352 56.5693 85.9243 56.0434 85.0867C55.7029 84.5457 55.1179 84.2491 54.5206 84.2491ZM46.3408 95.0708C45.0487 95.0708 43.784 94.4282 43.0467 93.2555C42.4947 92.3781 42.3189 91.3386 42.5482 90.3266C42.7803 89.3146 43.39 88.4536 44.2688 87.903L52.4582 82.7565C54.2707 81.6168 56.6709 82.1647 57.8107 83.9758C58.949 85.7884 58.4025 88.19 56.5899 89.3283L48.4005 94.4776C47.7607 94.8799 47.0466 95.0708 46.3408 95.0708Z" fill="#6D184E"/>
<path d="M129.991 136.897C129.157 135.57 127.405 135.171 126.077 136.005L117.887 141.152C116.56 141.987 116.159 143.738 116.995 145.066C117.829 146.394 119.581 146.793 120.909 145.96L129.097 140.811C130.425 139.977 130.824 138.225 129.991 136.897Z" fill="#0DF4FF"/>
<path d="M127.582 136.612C127.248 136.612 126.921 136.707 126.631 136.889L118.441 142.036C118.036 142.291 117.754 142.689 117.646 143.156C117.54 143.625 117.621 144.104 117.877 144.51C118.132 144.916 118.531 145.2 118.998 145.306C119.464 145.413 119.944 145.331 120.352 145.076L128.541 139.929C129.379 139.402 129.633 138.291 129.107 137.453C128.85 137.047 128.453 136.764 127.985 136.659C127.851 136.628 127.717 136.612 127.582 136.612ZM119.404 147.439C119.114 147.439 118.824 147.408 118.534 147.341C117.523 147.111 116.661 146.5 116.11 145.622C115.558 144.745 115.381 143.704 115.611 142.692C115.842 141.681 116.453 140.82 117.331 140.269L125.52 135.122C126.398 134.568 127.438 134.393 128.449 134.624C129.461 134.854 130.321 135.465 130.874 136.343C132.012 138.155 131.464 140.556 129.652 141.696L121.462 146.843C120.837 147.237 120.126 147.439 119.404 147.439Z" fill="#6D184E"/>
<path d="M142.765 109.203C141.306 109.776 140.589 111.425 141.164 112.884L144.709 121.885C145.283 123.344 146.932 124.059 148.391 123.486C149.85 122.911 150.566 121.263 149.992 119.804L146.447 110.804C145.872 109.345 144.224 108.629 142.765 109.203Z" fill="#FFD00D"/>
<path d="M143.147 110.174C142.702 110.35 142.351 110.689 142.159 111.129C141.967 111.567 141.959 112.055 142.135 112.502L145.679 121.502C146.042 122.423 147.087 122.876 148.007 122.514C148.454 122.338 148.805 121.999 148.996 121.56C149.187 121.12 149.197 120.632 149.021 120.186L145.475 111.186C145.299 110.739 144.96 110.388 144.522 110.198C144.081 110.006 143.594 109.997 143.147 110.174ZM147.355 124.726C145.806 124.726 144.34 123.793 143.738 122.267L140.194 113.267C139.408 111.275 140.39 109.016 142.382 108.231C143.347 107.851 144.403 107.87 145.353 108.283C146.305 108.698 147.038 109.456 147.418 110.421L150.962 119.421C151.342 120.385 151.323 121.441 150.91 122.392C150.497 123.343 149.738 124.077 148.774 124.457C148.308 124.639 147.827 124.726 147.355 124.726Z" fill="#6D184E"/>
<path d="M116.696 42.4333C116.261 43.9409 117.129 45.5136 118.635 45.9483L127.93 48.633C129.434 49.0694 131.009 48.2016 131.443 46.694C131.878 45.188 131.01 43.6136 129.504 43.1789L120.211 40.4942C118.705 40.0595 117.131 40.9273 116.696 42.4333Z" fill="#FFD00D"/>
<path d="M117.698 42.7252C117.423 43.6753 117.973 44.6728 118.925 44.9475L128.217 47.6308C129.167 47.9072 130.165 47.3561 130.441 46.4061C130.572 45.9449 130.52 45.4593 130.288 45.0407C130.055 44.6204 129.674 44.3163 129.215 44.1822L119.92 41.4988C118.97 41.2241 117.973 41.7735 117.698 42.7252ZM128.714 49.7893C128.358 49.7893 127.997 49.7402 127.639 49.6372L118.346 46.9522C116.289 46.3587 115.098 44.2018 115.692 42.1464C116.287 40.0893 118.444 38.9005 120.499 39.4924L129.794 42.1774C130.79 42.4652 131.614 43.1226 132.116 44.0318C132.616 44.9393 132.734 45.9875 132.446 46.9849C131.955 48.6839 130.399 49.7893 128.714 49.7893Z" fill="#6D184E"/>
<path d="M151.679 89.7851C151.244 91.2927 152.112 92.8657 153.618 93.3005L162.91 95.985C164.416 96.4198 165.991 95.5519 166.425 94.046C166.86 92.54 165.992 90.967 164.486 90.5305L155.194 87.846C153.686 87.4112 152.113 88.2791 151.679 89.7851Z" fill="#0DF4FF"/>
<path d="M152.682 90.0746C152.407 91.0255 152.956 92.0236 153.907 92.2984L163.2 94.9825C164.151 95.259 165.148 94.706 165.422 93.7551C165.697 92.8059 165.148 91.8078 164.197 91.533L154.904 88.8489C153.954 88.5741 152.956 89.1237 152.682 90.0746ZM163.696 97.1405C163.34 97.1405 162.979 97.0916 162.62 96.9888L153.327 94.303C151.27 93.7096 150.082 91.5515 150.675 89.4963C151.27 87.4394 153.427 86.2525 155.482 86.8426L164.775 89.5267C166.832 90.1218 168.022 92.2799 167.429 94.335C166.938 96.0328 165.382 97.1405 163.696 97.1405Z" fill="#6D184E"/>
<path d="M169.98 136.542C171.044 137.693 172.839 137.763 173.992 136.699L181.093 130.132C182.245 129.067 182.314 127.272 181.25 126.119C180.185 124.968 178.389 124.899 177.238 125.963L170.136 132.531C168.987 133.595 168.916 135.391 169.98 136.542Z" fill="#FFD52B"/>
<path d="M179.164 126.252C178.711 126.252 178.282 126.419 177.947 126.729L170.846 133.296C170.119 133.968 170.075 135.106 170.748 135.833C171.419 136.56 172.557 136.605 173.284 135.933L180.385 129.366C181.112 128.693 181.156 127.555 180.485 126.829C180.159 126.476 179.716 126.271 179.237 126.254C179.212 126.252 179.188 126.252 179.164 126.252ZM172.066 138.495C171.02 138.495 169.979 138.077 169.215 137.25C167.762 135.68 167.858 133.218 169.428 131.764L176.53 125.196C177.292 124.492 178.28 124.126 179.317 124.168C180.355 124.209 181.313 124.649 182.016 125.411C183.469 126.984 183.373 129.444 181.803 130.898L174.701 137.465C173.955 138.154 173.009 138.495 172.066 138.495Z" fill="#6D184E"/>
<path d="M150.95 69.6726C151.173 71.2244 152.611 72.3036 154.163 72.0807L163.738 70.7099C165.288 70.487 166.368 69.0475 166.145 67.4973C165.922 65.9439 164.484 64.8663 162.932 65.0892L153.357 66.46C151.805 66.6829 150.727 68.1207 150.95 69.6726Z" fill="#FFD52B"/>
<path d="M163.339 66.1033C163.253 66.1033 163.167 66.11 163.08 66.1235L153.505 67.4948C152.524 67.6345 151.843 68.5465 151.983 69.5258C152.052 70.0003 152.299 70.4193 152.683 70.707C153.066 70.9947 153.539 71.1159 154.014 71.0469L163.59 69.6755C164.569 69.5359 165.252 68.6239 165.112 67.6446C165.043 67.1701 164.796 66.7511 164.411 66.4617C164.098 66.2278 163.724 66.1033 163.339 66.1033ZM153.751 73.1536C152.918 73.1536 152.109 72.886 151.431 72.3779C150.601 71.7553 150.063 70.8483 149.916 69.8202C149.613 67.7035 151.089 65.7314 153.209 65.4268L162.784 64.0555C163.81 63.9108 164.833 64.1699 165.663 64.7925C166.492 65.4151 167.031 66.322 167.177 67.3484C167.482 69.4669 166.004 71.439 163.886 71.7418L154.31 73.1132C154.123 73.1401 153.936 73.1536 153.751 73.1536Z" fill="#6D184E"/>
<path d="M88.7689 124.002C89.8583 125.129 91.6561 125.159 92.7837 124.07L99.7354 117.344C100.863 116.254 100.894 114.458 99.8029 113.33C98.7135 112.204 96.9157 112.173 95.7894 113.264L88.8351 119.988C87.7101 121.078 87.6782 122.875 88.7689 124.002Z" fill="#FFD52B"/>
<path d="M89.5193 123.278C90.2073 123.989 91.3463 124.007 92.0574 123.319L99.0103 116.595C99.7214 115.907 99.7406 114.768 99.0539 114.057C98.7195 113.712 98.2723 113.518 97.7919 113.509C97.3076 113.488 96.8592 113.68 96.5146 114.014L89.5616 120.738C88.8493 121.428 88.8301 122.565 89.5193 123.278ZM90.8108 125.912C90.789 125.912 90.7672 125.911 90.7441 125.911C89.7077 125.894 88.7391 125.474 88.0178 124.728C86.5303 123.189 86.5713 120.726 88.1113 119.238L95.063 112.513C95.8086 111.793 96.7836 111.388 97.8278 111.423C98.8643 111.44 99.8328 111.86 100.554 112.606C102.042 114.146 101.999 116.607 100.462 118.095L93.5076 124.819C92.7787 125.525 91.8242 125.912 90.8108 125.912Z" fill="#6D184E"/>
<path d="M65.5158 34.809C66.8009 33.9096 67.1127 32.1388 66.213 30.856L60.6656 22.9325C59.7659 21.6479 57.9963 21.3359 56.7112 22.2353C55.4272 23.1347 55.1154 24.9038 56.0151 26.1883L61.5624 34.1118C62.4621 35.3964 64.2317 35.7084 65.5158 34.809Z" fill="#FFD52B"/>
<path d="M58.3362 22.7648C57.9718 22.7648 57.6162 22.8749 57.3114 23.0898C56.9181 23.3642 56.656 23.7767 56.5724 24.2486C56.489 24.7205 56.5953 25.1976 56.8695 25.5891L62.4178 33.5134C62.6929 33.9049 63.1041 34.1671 63.5767 34.2509C64.0495 34.3348 64.525 34.2282 64.9174 33.9538H64.9184C65.3106 33.6794 65.5728 33.267 65.6562 32.7951C65.7397 32.3232 65.6334 31.846 65.3592 31.4546L59.811 23.5303C59.5359 23.137 59.1238 22.8749 58.6521 22.7927C58.5467 22.7735 58.4415 22.7648 58.3362 22.7648ZM63.8965 36.3657C63.67 36.3657 63.4416 36.3483 63.2142 36.3063C62.1934 36.1263 61.3036 35.56 60.7078 34.7106L55.1604 26.7863C54.5655 25.9369 54.3371 24.9075 54.5169 23.8851C54.6966 22.8644 55.2635 21.973 56.1136 21.3805C56.9629 20.7846 57.9937 20.5556 59.0146 20.7356C60.0354 20.9174 60.9252 21.4837 61.5201 22.3331L67.0683 30.2573C67.6633 31.1068 67.8917 32.1362 67.7119 33.1586C67.5322 34.1793 66.9651 35.0689 66.1149 35.6631C65.4546 36.1245 64.686 36.3657 63.8965 36.3657Z" fill="#6D184E"/>
<path d="M99.2736 257.705C48.4016 257.705 7.16211 252.89 7.16211 246.95C7.16211 241.011 48.4016 236.195 99.2736 236.195C150.144 236.195 191.384 241.011 191.384 246.95C191.384 252.89 150.144 257.705 99.2736 257.705Z" fill="#F2A40C"/>
</svg>
