<svg width="229" height="38" viewBox="0 0 229 38" fill="none" xmlns="http://www.w3.org/2000/svg">
<path d="M15.2013 37.1585C13.8925 37.1585 12.8938 36.8059 12.2049 36.1007C11.5161 35.3955 11.1717 34.3881 11.1717 33.0785V18.4711L12.8249 22.9541L0.632849 6.07998C0.150678 5.3748 -0.0559663 4.61924 0.0129153 3.81332C0.0817968 2.97381 0.426205 2.25183 1.04614 1.64739C1.66607 1.04294 2.54431 0.740723 3.68086 0.740723C4.50744 0.740723 5.24791 0.942205 5.90229 1.34517C6.5911 1.74813 7.24548 2.38615 7.86541 3.25924L16.1312 14.8948H14.478L22.7438 3.25924C23.3982 2.35257 24.0354 1.71455 24.6553 1.34517C25.3097 0.942205 26.0674 0.740723 26.9284 0.740723C28.0305 0.740723 28.8915 1.02616 29.5114 1.59702C30.1314 2.1343 30.4586 2.8227 30.493 3.66221C30.5274 4.46813 30.2347 5.30764 29.6148 6.18072L17.5777 22.9541L19.1792 18.4711V33.0785C19.1792 35.7985 17.8532 37.1585 15.2013 37.1585Z" fill="#FF7020"/>
<path d="M42.2665 37.2592C39.5457 37.2592 37.1693 36.7388 35.1373 35.6978C33.1397 34.6568 31.5899 33.1625 30.4877 31.2148C29.3856 29.2671 28.8346 26.9669 28.8346 24.3141C28.8346 22.3328 29.1446 20.5531 29.7645 18.9748C30.3844 17.3965 31.2799 16.0533 32.4509 14.9452C33.6563 13.8034 35.0856 12.9471 36.7388 12.3763C38.3919 11.7718 40.2345 11.4696 42.2665 11.4696C44.9873 11.4696 47.3465 11.9901 49.3441 13.0311C51.3761 14.0721 52.9431 15.5496 54.0452 17.4637C55.1818 19.3778 55.7501 21.6612 55.7501 24.3141C55.7501 26.3289 55.4229 28.1254 54.7685 29.7037C54.1486 31.282 53.2531 32.642 52.0821 33.7837C50.9111 34.9254 49.4818 35.7985 47.7942 36.403C46.1411 36.9738 44.2985 37.2592 42.2665 37.2592ZM42.2665 31.5674C43.403 31.5674 44.3846 31.2987 45.2112 30.7615C46.0378 30.2242 46.6921 29.435 47.1743 28.3941C47.6565 27.3195 47.8976 25.9595 47.8976 24.3141C47.8976 21.8627 47.3809 20.0662 46.3477 18.9244C45.3145 17.7491 43.9541 17.1615 42.2665 17.1615C41.1644 17.1615 40.1828 17.4133 39.3218 17.917C38.4952 18.4207 37.8409 19.2099 37.3587 20.2844C36.911 21.3254 36.6871 22.6686 36.6871 24.3141C36.6871 26.7654 37.2037 28.5955 38.2369 29.8044C39.2701 30.9797 40.6133 31.5674 42.2665 31.5674Z" fill="#FF7020"/>
<path d="M69.8467 37.2592C67.7114 37.2592 65.9377 36.8731 64.5256 36.1007C63.1135 35.3284 62.0631 34.1699 61.3743 32.6252C60.7199 31.0469 60.3927 29.0992 60.3927 26.7822V15.3985C60.3927 14.1225 60.7199 13.1654 61.3743 12.5274C62.0631 11.8894 63.0274 11.5704 64.2673 11.5704C65.5072 11.5704 66.4715 11.8894 67.1603 12.5274C67.8491 13.1654 68.1935 14.1225 68.1935 15.3985V26.9837C68.1935 28.4612 68.5035 29.5694 69.1234 30.3081C69.7434 31.0133 70.7249 31.3659 72.0681 31.3659C73.5491 31.3659 74.7545 30.8622 75.6844 29.8548C76.6487 28.8138 77.1309 27.4538 77.1309 25.7748V15.3985C77.1309 14.1225 77.4581 13.1654 78.1125 12.5274C78.8013 11.8894 79.7656 11.5704 81.0055 11.5704C82.2798 11.5704 83.2441 11.8894 83.8985 12.5274C84.5873 13.1654 84.9317 14.1225 84.9317 15.3985V33.28C84.9317 35.8657 83.6747 37.1585 81.1605 37.1585C79.9206 37.1585 78.9735 36.8227 78.3191 36.1511C77.6647 35.4795 77.3376 34.5225 77.3376 33.28V29.9052L78.1125 31.8696C77.3548 33.5822 76.2699 34.9086 74.8578 35.8489C73.4457 36.7891 71.7754 37.2592 69.8467 37.2592Z" fill="#FF7020"/>
<path d="M94.9976 37.1585C93.6889 37.1585 92.6901 36.8227 92.0013 36.1511C91.3124 35.4795 90.968 34.5225 90.968 33.28V15.3985C90.968 14.156 91.2952 13.2158 91.9496 12.5778C92.6384 11.9062 93.5855 11.5704 94.791 11.5704C96.0308 11.5704 96.9779 11.9062 97.6323 12.5778C98.2867 13.2158 98.6139 14.156 98.6139 15.3985V18.0178H98.0973C98.5106 16.0029 99.4232 14.4415 100.835 13.3333C102.247 12.2252 104.073 11.6039 106.311 11.4696C107.172 11.4025 107.827 11.6207 108.275 12.1244C108.757 12.5946 109.015 13.3837 109.049 14.4918C109.118 15.5328 108.894 16.3555 108.378 16.96C107.896 17.5644 107.069 17.9338 105.898 18.0681L104.71 18.1689C102.747 18.3368 101.283 18.8908 100.319 19.8311C99.3888 20.7713 98.9239 22.1313 98.9239 23.9111V33.28C98.9239 34.5225 98.5794 35.4795 97.8906 36.1511C97.2363 36.8227 96.2719 37.1585 94.9976 37.1585Z" fill="#FF7020"/>
<path d="M116.649 37.1585C115.478 37.1585 114.583 36.8395 113.963 36.2015C113.343 35.5634 113.033 34.6736 113.033 33.5318V4.36739C113.033 3.22566 113.36 2.33578 114.015 1.69776C114.703 1.05973 115.633 0.740723 116.804 0.740723C117.837 0.740723 118.647 0.942205 119.232 1.34517C119.852 1.71455 120.421 2.36937 120.937 3.30961L132.871 24.5659H131.114L143.048 3.30961C143.565 2.36937 144.116 1.71455 144.701 1.34517C145.321 0.942205 146.131 0.740723 147.129 0.740723C148.3 0.740723 149.196 1.05973 149.816 1.69776C150.47 2.33578 150.797 3.22566 150.797 4.36739V33.5318C150.797 34.6736 150.487 35.5634 149.867 36.2015C149.247 36.8395 148.352 37.1585 147.181 37.1585C146.01 37.1585 145.097 36.8395 144.443 36.2015C143.823 35.5634 143.513 34.6736 143.513 33.5318V13.1318H144.65L135.041 29.9052C134.627 30.5432 134.18 31.0301 133.697 31.3659C133.25 31.6681 132.647 31.8192 131.889 31.8192C131.132 31.8192 130.512 31.6513 130.03 31.3155C129.547 30.9797 129.117 30.5096 128.738 29.9052L119.026 13.0815H120.266V33.5318C120.266 34.6736 119.956 35.5634 119.336 36.2015C118.75 36.8395 117.855 37.1585 116.649 37.1585Z" fill="#FF7020"/>
<path d="M170.686 37.2592C167.689 37.2592 165.106 36.7388 162.936 35.6978C160.801 34.6232 159.148 33.1289 157.977 31.2148C156.84 29.2671 156.272 26.9837 156.272 24.3644C156.272 21.8123 156.823 19.5792 157.925 17.6652C159.027 15.7175 160.56 14.2064 162.523 13.1318C164.521 12.0237 166.777 11.4696 169.291 11.4696C171.116 11.4696 172.769 11.7718 174.25 12.3763C175.731 12.9471 177.006 13.7867 178.073 14.8948C179.141 15.9694 179.95 17.2958 180.501 18.8741C181.052 20.4187 181.328 22.1481 181.328 24.0622C181.328 24.7002 181.121 25.1871 180.708 25.5229C180.295 25.8252 179.692 25.9763 178.9 25.9763H162.678V22.0474H175.697L174.87 22.7526C174.87 21.3758 174.664 20.2341 174.25 19.3274C173.837 18.3871 173.234 17.682 172.442 17.2118C171.684 16.7417 170.737 16.5066 169.601 16.5066C168.326 16.5066 167.242 16.7921 166.346 17.3629C165.451 17.9338 164.762 18.7565 164.28 19.8311C163.797 20.9057 163.556 22.1985 163.556 23.7096V24.1126C163.556 26.6647 164.159 28.5452 165.365 29.7541C166.604 30.9629 168.43 31.5674 170.841 31.5674C171.667 31.5674 172.614 31.4666 173.682 31.2652C174.75 31.0637 175.748 30.7447 176.678 30.3081C177.47 29.9387 178.176 29.8212 178.796 29.9555C179.416 30.0563 179.899 30.3249 180.243 30.7615C180.587 31.198 180.777 31.7017 180.811 32.2726C180.88 32.8434 180.76 33.4143 180.45 33.9852C180.14 34.5225 179.623 34.9758 178.9 35.3452C177.729 35.9832 176.403 36.4533 174.922 36.7555C173.475 37.0913 172.063 37.2592 170.686 37.2592Z" fill="#FF7020"/>
<path d="M194.441 37.2592C192.581 37.2592 190.911 36.9067 189.43 36.2015C187.949 35.4963 186.795 34.5392 185.968 33.3304C185.142 32.1215 184.729 30.7615 184.729 29.2504C184.729 27.437 185.211 26.0099 186.175 24.9689C187.139 23.8943 188.706 23.1387 190.876 22.7022C193.046 22.2321 195.922 21.997 199.504 21.997H202.242V25.9259H199.555C197.799 25.9259 196.37 26.0266 195.267 26.2281C194.2 26.396 193.425 26.6983 192.943 27.1348C192.495 27.5713 192.271 28.1758 192.271 28.9481C192.271 29.8884 192.598 30.6607 193.253 31.2652C193.941 31.8696 194.923 32.1718 196.197 32.1718C197.196 32.1718 198.074 31.9536 198.832 31.517C199.624 31.0469 200.244 30.4257 200.692 29.6533C201.14 28.8474 201.363 27.9407 201.363 26.9333V21.1407C201.363 19.6632 201.019 18.6222 200.33 18.0178C199.641 17.3797 198.47 17.0607 196.817 17.0607C195.887 17.0607 194.871 17.1783 193.769 17.4133C192.702 17.6148 191.513 17.9674 190.205 18.4711C189.447 18.8069 188.775 18.8908 188.19 18.7229C187.604 18.5215 187.157 18.1857 186.847 17.7155C186.537 17.2118 186.382 16.6746 186.382 16.1037C186.382 15.4992 186.554 14.9284 186.898 14.3911C187.243 13.8202 187.811 13.4005 188.603 13.1318C190.222 12.4938 191.737 12.0573 193.149 11.8222C194.596 11.5871 195.922 11.4696 197.127 11.4696C199.779 11.4696 201.949 11.8558 203.637 12.6281C205.359 13.3669 206.65 14.5254 207.511 16.1037C208.372 17.6484 208.803 19.6464 208.803 22.0978V33.28C208.803 34.5225 208.493 35.4795 207.873 36.1511C207.253 36.8227 206.357 37.1585 205.186 37.1585C204.015 37.1585 203.103 36.8227 202.448 36.1511C201.828 35.4795 201.518 34.5225 201.518 33.28V31.4163L201.88 31.7185C201.673 32.8602 201.226 33.8508 200.537 34.6904C199.883 35.4963 199.039 36.1343 198.005 36.6044C196.972 37.041 195.784 37.2592 194.441 37.2592Z" fill="#FF7020"/>
<path d="M223.766 37.2592C220.701 37.2592 218.41 36.4365 216.895 34.7911C215.38 33.1121 214.622 30.6271 214.622 27.3363V4.61924C214.622 3.34319 214.949 2.38616 215.603 1.74813C216.292 1.07653 217.274 0.740723 218.548 0.740723C219.788 0.740723 220.735 1.07653 221.389 1.74813C222.078 2.38616 222.423 3.34319 222.423 4.61924V27.0341C222.423 28.4108 222.715 29.435 223.301 30.1066C223.921 30.7447 224.73 31.0637 225.729 31.0637C226.005 31.0637 226.263 31.0469 226.504 31.0133C226.745 30.9797 227.003 30.9629 227.279 30.9629C227.83 30.8958 228.209 31.0637 228.415 31.4667C228.656 31.836 228.777 32.5916 228.777 33.7333C228.777 34.7407 228.57 35.5131 228.157 36.0504C227.744 36.5541 227.107 36.8899 226.246 37.0578C225.901 37.0913 225.505 37.1249 225.057 37.1585C224.61 37.2257 224.179 37.2592 223.766 37.2592Z" fill="#FF7020"/>
</svg>
