<svg width="58" height="56" viewBox="0 0 58 56" fill="none" xmlns="http://www.w3.org/2000/svg">
<path d="M47.1212 9.32595L52.6968 9.14978V28.8809H45.9707L47.1212 9.32595Z" fill="white"/>
<ellipse cx="29.952" cy="43.3269" rx="6.63755" ry="8.4562" fill="white"/>
<path d="M17.7742 15.7562C17.7742 20.4264 14.537 19.6319 10.8712 19.6319C7.20538 19.6319 4.76465 18.3987 4.76465 16.7251C4.76465 12.0549 7.47088 11.44 11.1367 11.44C14.8025 11.44 17.7742 11.0859 17.7742 15.7562Z" fill="white"/>
<path d="M1.46683 0.582601C1.14014 0.76469 0.708907 1.15488 0.486757 1.45403L0.0947266 2.0133V8.98471V15.9691L0.434486 16.8406C1.66285 19.9751 4.30252 22.0561 7.47796 22.3813L8.32736 22.4723L8.3927 38.21L8.45804 53.9477L8.74552 54.416C8.9154 54.6761 9.29437 55.0533 9.59492 55.2614C10.0784 55.5995 10.2483 55.6385 11.1369 55.6385C12.0124 55.6385 12.1954 55.5995 12.6528 55.2874C12.9272 55.0923 13.3061 54.7151 13.4891 54.442L13.8158 53.9607L13.8811 38.223L13.9465 22.4723L14.7959 22.3813C18.0497 22.0561 20.8985 19.728 21.8916 16.6194C22.1791 15.722 22.1791 15.5789 22.1791 8.86765V2.02631L21.8263 1.51906C21.2513 0.712665 20.6502 0.374498 19.644 0.322473C18.5724 0.270447 17.8014 0.621619 17.2134 1.45403L16.8213 2.0133L16.756 5.2779L16.6907 8.5555H15.3186H13.9465L13.8811 5.29091C13.8158 2.07833 13.8158 2.02631 13.4891 1.55808C12.9402 0.738675 12.2738 0.374498 11.2807 0.322473C10.2091 0.270447 9.43811 0.621619 8.85007 1.45403L8.45804 2.0133L8.3927 5.2779L8.32736 8.5555H6.95525H5.58315L5.51781 5.29091L5.45247 2.02631L5.09964 1.51906C4.52467 0.712665 3.92355 0.374498 2.91734 0.322473C2.19862 0.283454 1.95034 0.33548 1.46683 0.582601ZM16.6253 14.4734C16.6253 15.2668 15.985 16.1382 15.0572 16.6325C14.639 16.8536 14.2731 16.8796 11.1369 16.8796C7.84385 16.8796 7.64784 16.8666 7.15127 16.5934C6.26267 16.1252 5.64849 15.2538 5.64849 14.4734V14.0832H11.1369H16.6253V14.4734Z" fill="#FF7020"/>
<path d="M28.5563 0.582611C28.2296 0.764698 27.7984 1.15489 27.5763 1.45403L27.1842 2.01331L27.1189 16.5154L27.0536 31.0175L25.9559 31.3427C23.2117 32.123 21.16 33.7618 20.0101 36.064C19.0039 38.106 18.834 38.9514 18.834 41.9168C18.834 44.0889 18.8732 44.6092 19.1084 45.5586C20.389 50.5921 23.2247 54.0258 27.1842 55.3394C27.9552 55.5865 28.3734 55.6385 29.8631 55.6385C31.3528 55.6385 31.771 55.5865 32.542 55.3394C36.5015 54.0258 39.3372 50.5921 40.6178 45.5586C40.853 44.6092 40.8922 44.0889 40.8922 41.9168C40.8922 39.7318 40.853 39.2375 40.6047 38.3401C39.6247 34.7373 37.2855 32.3442 33.7703 31.3427L32.6726 31.0175L32.6073 16.5284L32.542 2.02631L32.1891 1.51907C31.6142 0.712669 31.0131 0.374508 30.0068 0.322483C29.2881 0.283463 29.0398 0.335487 28.5563 0.582611ZM32.4374 36.7143C33.901 37.2085 34.855 38.3401 35.2208 39.9789C35.4691 41.1104 35.3254 43.9458 34.9595 45.1034C34.28 47.2364 32.9863 49.0313 31.588 49.7337C30.7125 50.1759 29.0268 50.1889 28.1643 49.7467C26.6746 48.9793 25.4724 47.3145 24.7406 45.0384C24.4792 44.1799 24.44 43.8028 24.44 41.9168C24.44 39.8228 24.4531 39.7578 24.819 38.9514C25.4724 37.5467 26.8053 36.6363 28.5563 36.4021C28.5563 36.4021 31.6272 36.4542 32.4374 36.7143Z" fill="#FF7020"/>
<path d="M53.7515 0.530582C52.0788 1.40201 49.4914 3.76917 47.8972 5.86319C43.9246 11.1308 41.6116 18.5704 41.0759 27.87C40.8798 31.2776 40.9713 31.7849 41.873 32.6823C42.7485 33.5537 42.9837 33.5928 47.9495 33.5928H52.2095V43.6467V53.7136L52.5101 54.2599C52.6669 54.572 53.0589 55.0012 53.3725 55.2354C53.8822 55.5995 54.0129 55.6385 54.9407 55.6385C55.8293 55.6385 56.0122 55.5995 56.4696 55.2874C56.744 55.0923 57.123 54.7151 57.3059 54.442L57.6326 53.9607V28V2.02631L57.2798 1.51907C56.7048 0.699665 56.1037 0.374504 55.0975 0.322479C54.4441 0.296467 54.1174 0.335487 53.7515 0.530582ZM52.2095 18.7655V28H49.4392H46.6819L46.7734 26.6604C47.0086 23.0836 47.8841 18.7655 49.021 15.5789C49.7789 13.4719 51.8175 9.53099 52.1442 9.53099C52.1834 9.53099 52.2095 13.68 52.2095 18.7655Z" fill="#FF7020"/>
</svg>
